<svg xmlns="http://www.w3.org/2000/svg" viewBox="0 0 429.02 411.24"><defs><style>.cls-1{fill:#ff2929;}.cls-2{fill:#ff1d25;}.cls-3{fill:#fff;}.cls-4{fill:none;stroke:#ff1d25;stroke-linejoin:round;stroke-width:10px;}</style></defs><title>Asset 3Create+_4x</title><g id="Layer_2" data-name="Layer 2"><g id="Layer_1-2" data-name="Layer 1"><path class="cls-1" d="M28.43,410.71A27.95,27.95,0,0,1,.5,382.77l0-354.34A28,28,0,0,1,28.47.5l367.12,0a27.93,27.93,0,0,1,27.93,27.94l0,354.33a28,28,0,0,1-27.94,27.94h0Z"/><path class="cls-2" d="M28.47,1h0L395.58,1A27.45,27.45,0,0,1,423,28.47l0,354.33a27.47,27.47,0,0,1-27.44,27.44l-367.11,0A27.43,27.43,0,0,1,1,382.77L1,28.43A27.47,27.47,0,0,1,28.47,1m0-1A28.43,28.43,0,0,0,0,28.43L0,382.77a28.45,28.45,0,0,0,28.43,28.44l367.11,0A28.44,28.44,0,0,0,424,382.8l0-354.33A28.44,28.44,0,0,0,395.58,0L28.47,0Z"/><path class="cls-3" d="M289.05,18.62c75.7,0,137,51,137,114V278.5c0,63-61.27,114-137,114-82.38,0-149-83.61-149-186.93s66.65-186.93,149-186.93"/><path class="cls-4" d="M345.32,188.19c-16.77-45.31,11.62-45.3,11.62-45.3s31,1.16-2.59,62.72h0c-33.56,61.56-2.59,62.73-2.59,62.73s28.39,0,11.62-45.3"/><path class="cls-4" d="M335,213.74c-50.33,15.09-50.32-10.46-50.32-10.46s1.29-27.88,69.68,2.33h0C422.72,235.83,424,208,424,208s0-25.56-50.33-10.46"/></g></g></svg>