<svg xmlns="http://www.w3.org/2000/svg" viewBox="0 0 426.02 411.24"><defs><style>.cls-1{fill:#ff2929;}.cls-2{fill:#ff1d25;}.cls-3{fill:none;stroke:#ff1d25;stroke-linejoin:round;stroke-width:10px;}</style></defs><title>Asset 5Create+trans</title><g id="Layer_2" data-name="Layer 2"><g id="Layer_1-2" data-name="Layer 1"><path class="cls-1" d="M28.43,410.71A27.95,27.95,0,0,1,.5,382.77l0-354.34A28,28,0,0,1,28.47.5l367.11,0a27.93,27.93,0,0,1,27.94,27.94v80.2c-13.39-52.73-69.12-90.55-134.46-90.55-40,0-77.57,19.5-105.8,54.91s-43.73,82.44-43.73,132.52,15.53,97.15,43.73,132.52S249.05,393,289.05,393c65.29,0,121-37.79,134.44-90.47V382.8a28,28,0,0,1-27.94,27.94Z"/><path class="cls-2" d="M28.47,1,395.58,1A27.45,27.45,0,0,1,423,28.47V105c-6.9-23.31-22.53-44.42-44.69-60.09-24.86-17.59-56.56-27.28-89.27-27.28a123.88,123.88,0,0,0-58.51,14.79c-17.87,9.48-33.91,23-47.68,40.31C154.59,108.18,139,155.35,139,205.55s15.57,97.37,43.84,132.84c13.77,17.26,29.81,30.82,47.68,40.3a123.88,123.88,0,0,0,58.51,14.79c32.69,0,64.38-9.68,89.23-27.25,22.15-15.66,37.8-36.75,44.71-60.05V382.8a27.47,27.47,0,0,1-27.44,27.44l-367.11,0A27.43,27.43,0,0,1,1,382.77L1,28.43A27.46,27.46,0,0,1,28.47,1m0-1A28.43,28.43,0,0,0,0,28.43L0,382.77a28.45,28.45,0,0,0,28.43,28.44l367.11,0A28.44,28.44,0,0,0,424,382.8V298.13c-11.16,53.63-67.28,94.35-134.94,94.35-82.38,0-149-83.61-149-186.93s66.65-186.93,149-186.93c67.7,0,123.84,40.77,135,94.45V28.47A28.44,28.44,0,0,0,395.58,0L28.47,0Z"/><path class="cls-3" d="M342.32,188.19c-16.77-45.31,11.62-45.3,11.62-45.3s31,1.16-2.59,62.72h0c-33.56,61.56-2.59,62.73-2.59,62.73s28.39,0,11.62-45.3"/><path class="cls-3" d="M332,213.74c-50.33,15.09-50.32-10.46-50.32-10.46s1.29-27.88,69.68,2.33h0C419.72,235.83,421,208,421,208s0-25.56-50.33-10.46"/></g></g></svg>